<svg width="40" height="40" viewBox="0 0 40 40" fill="none" xmlns="http://www.w3.org/2000/svg">
<mask id="mask0_813_12197" style="mask-type:alpha" maskUnits="userSpaceOnUse" x="0" y="0" width="40" height="40">
<rect width="40" height="40" fill="#D9D9D9"/>
</mask>
<g mask="url(#mask0_813_12197)">
<path d="M4.25016 35.1086C3.55572 35.3864 2.896 35.3253 2.271 34.9253C1.646 34.5267 1.3335 33.9454 1.3335 33.1815V25.4211C1.3335 24.935 1.47239 24.501 1.75016 24.119C2.02794 23.7371 2.40988 23.494 2.896 23.3899L18.0002 19.6399L2.896 15.8899C2.40988 15.7857 2.02794 15.5426 1.75016 15.1607C1.47239 14.7788 1.3335 14.3447 1.3335 13.8586V6.0982C1.3335 5.33431 1.646 4.75237 2.271 4.35237C2.896 3.95376 3.55572 3.89334 4.25016 4.17112L36.3335 17.7128C37.2015 18.0947 37.6356 18.7371 37.6356 19.6399C37.6356 20.5426 37.2015 21.185 36.3335 21.5669L4.25016 35.1086Z" fill="white"/>
</g>
</svg>
