<svg width="25" height="25" viewBox="0 0 25 25" fill="none" xmlns="http://www.w3.org/2000/svg">
<mask id="mask0_842_12280" style="mask-type:alpha" maskUnits="userSpaceOnUse" x="0" y="0" width="25" height="25">
<rect x="25" y="1.09278e-06" width="25" height="25" transform="rotate(90 25 1.09278e-06)" fill="#D9D9D9"/>
</mask>
<g mask="url(#mask0_842_12280)">
<path d="M9.01058 12.5002C9.01058 12.3613 9.03662 12.2269 9.08871 12.097C9.14079 11.9665 9.21023 11.8578 9.29704 11.771L14.0887 6.97933C14.2797 6.78836 14.5227 6.69287 14.8179 6.69287C15.113 6.69287 15.3561 6.78836 15.547 6.97933C15.738 7.1703 15.8335 7.41336 15.8335 7.7085C15.8335 8.00364 15.738 8.24669 15.547 8.43766L11.4845 12.5002L15.547 16.5627C15.738 16.7536 15.8335 16.9967 15.8335 17.2918C15.8335 17.587 15.738 17.83 15.547 18.021C15.3561 18.212 15.113 18.3075 14.8179 18.3075C14.5227 18.3075 14.2797 18.212 14.0887 18.021L9.29704 13.2293C9.19287 13.1252 9.11926 13.0123 9.07621 12.8908C9.03246 12.7693 9.01058 12.6391 9.01058 12.5002Z" fill="black"/>
</g>
</svg>
