<svg width="35" height="35" viewBox="0 0 35 35" fill="none" xmlns="http://www.w3.org/2000/svg">
<mask id="mask0_813_12236" style="mask-type:alpha" maskUnits="userSpaceOnUse" x="0" y="0" width="35" height="35">
<rect width="35" height="35" fill="#D9D9D9"/>
</mask>
<g mask="url(#mask0_813_12236)">
<path d="M27.5625 30.2239L19.651 22.3124C18.9219 22.8714 18.0289 23.3148 16.9721 23.6424C15.9143 23.971 14.8385 24.1353 13.7448 24.1353C10.8524 24.1353 8.40389 23.133 6.39917 21.1283C4.39347 19.1226 3.39062 16.6735 3.39062 13.7812C3.39062 10.8888 4.39347 8.43978 6.39917 6.43409C8.40389 4.42936 10.8524 3.427 13.7448 3.427C16.6372 3.427 19.0862 4.42936 21.0919 6.43409C23.0966 8.43978 24.099 10.8888 24.099 13.7812C24.099 14.8749 23.9473 15.9201 23.644 16.9166C23.3397 17.9131 22.8958 18.8003 22.3125 19.578L30.2969 27.5624C30.6615 27.927 30.8438 28.3645 30.8438 28.8749C30.8438 29.3853 30.6493 29.835 30.2604 30.2239C29.8958 30.5885 29.4462 30.7708 28.9115 30.7708C28.3767 30.7708 27.9271 30.5885 27.5625 30.2239ZM13.7448 20.2708C15.5677 20.2708 17.1053 19.6446 18.3575 18.3924C19.6088 17.1412 20.2344 15.6041 20.2344 13.7812C20.2344 11.9583 19.6088 10.4207 18.3575 9.16846C17.1053 7.91721 15.5677 7.29159 13.7448 7.29159C11.9219 7.29159 10.3848 7.91721 9.13354 9.16846C7.88132 10.4207 7.25521 11.9583 7.25521 13.7812C7.25521 15.6041 7.88132 17.1412 9.13354 18.3924C10.3848 19.6446 11.9219 20.2708 13.7448 20.2708Z" fill="black"/>
</g>
</svg>
