<svg width="150" height="49" viewBox="0 0 150 49" fill="none" xmlns="http://www.w3.org/2000/svg">
<rect width="150" height="49" rx="24.5" fill="#444DF2"/>
<mask id="mask0_463_7232" style="mask-type:alpha" maskUnits="userSpaceOnUse" x="25" y="12" width="24" height="25">
<rect x="25" y="12.5" width="24" height="24" fill="#D9D9D9"/>
</mask>
<g mask="url(#mask0_463_7232)">
<path d="M45.3 32.8L43 30.5H29C28.45 30.5 27.9793 30.3043 27.588 29.913C27.196 29.521 27 29.05 27 28.5V16.5C27 15.95 27.196 15.479 27.588 15.087C27.9793 14.6957 28.45 14.5 29 14.5H45C45.55 14.5 46.021 14.6957 46.413 15.087C46.8043 15.479 47 15.95 47 16.5V32.075C47 32.525 46.796 32.8373 46.388 33.012C45.9793 33.1873 45.6167 33.1167 45.3 32.8ZM29 16.5V28.5H43.825L45 29.675V16.5H29Z" fill="white"/>
</g>
<path d="M61.538 30.144C61.166 30.144 60.878 30.042 60.674 29.838C60.482 29.622 60.386 29.328 60.386 28.956V18.48C60.386 18.096 60.488 17.808 60.692 17.616C60.896 17.412 61.184 17.31 61.556 17.31H65.894C67.286 17.31 68.36 17.658 69.116 18.354C69.872 19.05 70.25 20.022 70.25 21.27C70.25 22.518 69.872 23.496 69.116 24.204C68.36 24.9 67.286 25.248 65.894 25.248H62.69V28.956C62.69 29.328 62.594 29.622 62.402 29.838C62.21 30.042 61.922 30.144 61.538 30.144ZM62.69 23.43H65.534C66.35 23.43 66.968 23.25 67.388 22.89C67.808 22.518 68.018 21.978 68.018 21.27C68.018 20.562 67.808 20.028 67.388 19.668C66.968 19.308 66.35 19.128 65.534 19.128H62.69V23.43ZM72.8884 30.144C72.5164 30.144 72.2284 30.048 72.0244 29.856C71.8324 29.652 71.7364 29.364 71.7364 28.992V22.188C71.7364 21.816 71.8324 21.534 72.0244 21.342C72.2164 21.15 72.4864 21.054 72.8344 21.054C73.1824 21.054 73.4524 21.15 73.6444 21.342C73.8364 21.534 73.9324 21.816 73.9324 22.188V23.322H73.7524C73.9204 22.602 74.2504 22.056 74.7424 21.684C75.2344 21.312 75.8884 21.09 76.7044 21.018C76.9564 20.994 77.1544 21.06 77.2984 21.216C77.4544 21.36 77.5444 21.588 77.5684 21.9C77.5924 22.2 77.5204 22.446 77.3524 22.638C77.1964 22.818 76.9564 22.926 76.6324 22.962L76.2364 22.998C75.5044 23.07 74.9524 23.298 74.5804 23.682C74.2084 24.054 74.0224 24.582 74.0224 25.266V28.992C74.0224 29.364 73.9264 29.652 73.7344 29.856C73.5424 30.048 73.2604 30.144 72.8884 30.144ZM79.9012 30.126C79.5412 30.126 79.2652 30.018 79.0732 29.802C78.8812 29.586 78.7852 29.286 78.7852 28.902V22.296C78.7852 21.9 78.8812 21.6 79.0732 21.396C79.2652 21.18 79.5412 21.072 79.9012 21.072C80.2612 21.072 80.5372 21.18 80.7292 21.396C80.9332 21.6 81.0352 21.9 81.0352 22.296V28.902C81.0352 29.286 80.9392 29.586 80.7472 29.802C80.5552 30.018 80.2732 30.126 79.9012 30.126ZM79.9012 19.398C79.4812 19.398 79.1512 19.296 78.9112 19.092C78.6832 18.876 78.5692 18.582 78.5692 18.21C78.5692 17.826 78.6832 17.532 78.9112 17.328C79.1512 17.124 79.4812 17.022 79.9012 17.022C80.3332 17.022 80.6632 17.124 80.8912 17.328C81.1192 17.532 81.2332 17.826 81.2332 18.21C81.2332 18.582 81.1192 18.876 80.8912 19.092C80.6632 19.296 80.3332 19.398 79.9012 19.398ZM84.5251 30.144C84.1651 30.144 83.8891 30.048 83.6971 29.856C83.5051 29.652 83.4091 29.364 83.4091 28.992V22.188C83.4091 21.816 83.5051 21.534 83.6971 21.342C83.8891 21.15 84.1591 21.054 84.5071 21.054C84.8551 21.054 85.1251 21.15 85.3171 21.342C85.5091 21.534 85.6051 21.816 85.6051 22.188V23.502L85.4071 22.962C85.6471 22.362 86.0191 21.888 86.5231 21.54C87.0271 21.192 87.6271 21.018 88.3231 21.018C89.0311 21.018 89.6131 21.186 90.0691 21.522C90.5251 21.858 90.8431 22.374 91.0231 23.07H90.7711C91.0111 22.434 91.4071 21.936 91.9591 21.576C92.5111 21.204 93.1471 21.018 93.8671 21.018C94.5391 21.018 95.0911 21.15 95.5231 21.414C95.9671 21.678 96.2971 22.08 96.5131 22.62C96.7291 23.148 96.8371 23.82 96.8371 24.636V28.992C96.8371 29.364 96.7351 29.652 96.5311 29.856C96.3391 30.048 96.0631 30.144 95.7031 30.144C95.3431 30.144 95.0671 30.048 94.8751 29.856C94.6831 29.652 94.5871 29.364 94.5871 28.992V24.726C94.5871 24.054 94.4731 23.562 94.2451 23.25C94.0291 22.938 93.6571 22.782 93.1291 22.782C92.5411 22.782 92.0791 22.992 91.7431 23.412C91.4071 23.82 91.2391 24.39 91.2391 25.122V28.992C91.2391 29.364 91.1431 29.652 90.9511 29.856C90.7591 30.048 90.4831 30.144 90.1231 30.144C89.7631 30.144 89.4811 30.048 89.2771 29.856C89.0851 29.652 88.9891 29.364 88.9891 28.992V24.726C88.9891 24.054 88.8751 23.562 88.6471 23.25C88.4311 22.938 88.0651 22.782 87.5491 22.782C86.9611 22.782 86.4991 22.992 86.1631 23.412C85.8271 23.82 85.6591 24.39 85.6591 25.122V28.992C85.6591 29.76 85.2811 30.144 84.5251 30.144ZM102.056 30.18C101.42 30.18 100.85 30.06 100.346 29.82C99.8543 29.568 99.4643 29.232 99.1763 28.812C98.9003 28.392 98.7623 27.918 98.7623 27.39C98.7623 26.742 98.9303 26.232 99.2663 25.86C99.6023 25.476 100.148 25.2 100.904 25.032C101.66 24.864 102.674 24.78 103.946 24.78H104.846V26.076H103.964C103.22 26.076 102.626 26.112 102.182 26.184C101.738 26.256 101.42 26.382 101.228 26.562C101.048 26.73 100.958 26.97 100.958 27.282C100.958 27.678 101.096 28.002 101.372 28.254C101.648 28.506 102.032 28.632 102.524 28.632C102.92 28.632 103.268 28.542 103.568 28.362C103.88 28.17 104.126 27.912 104.306 27.588C104.486 27.264 104.576 26.892 104.576 26.472V24.402C104.576 23.802 104.444 23.37 104.18 23.106C103.916 22.842 103.472 22.71 102.848 22.71C102.5 22.71 102.122 22.752 101.714 22.836C101.318 22.92 100.898 23.064 100.454 23.268C100.226 23.376 100.022 23.406 99.8423 23.358C99.6743 23.31 99.5423 23.214 99.4463 23.07C99.3503 22.914 99.3023 22.746 99.3023 22.566C99.3023 22.386 99.3503 22.212 99.4463 22.044C99.5423 21.864 99.7043 21.732 99.9323 21.648C100.484 21.42 101.012 21.258 101.516 21.162C102.032 21.066 102.5 21.018 102.92 21.018C103.784 21.018 104.492 21.15 105.044 21.414C105.608 21.678 106.028 22.08 106.304 22.62C106.58 23.148 106.718 23.832 106.718 24.672V28.992C106.718 29.364 106.628 29.652 106.448 29.856C106.268 30.048 106.01 30.144 105.674 30.144C105.338 30.144 105.074 30.048 104.882 29.856C104.702 29.652 104.612 29.364 104.612 28.992V28.128H104.756C104.672 28.548 104.504 28.914 104.252 29.226C104.012 29.526 103.706 29.76 103.334 29.928C102.962 30.096 102.536 30.18 102.056 30.18ZM110.154 30.144C109.782 30.144 109.494 30.048 109.29 29.856C109.098 29.652 109.002 29.364 109.002 28.992V22.188C109.002 21.816 109.098 21.534 109.29 21.342C109.482 21.15 109.752 21.054 110.1 21.054C110.448 21.054 110.718 21.15 110.91 21.342C111.102 21.534 111.198 21.816 111.198 22.188V23.322H111.018C111.186 22.602 111.516 22.056 112.008 21.684C112.5 21.312 113.154 21.09 113.97 21.018C114.222 20.994 114.42 21.06 114.564 21.216C114.72 21.36 114.81 21.588 114.834 21.9C114.858 22.2 114.786 22.446 114.618 22.638C114.462 22.818 114.222 22.926 113.898 22.962L113.502 22.998C112.77 23.07 112.218 23.298 111.846 23.682C111.474 24.054 111.288 24.582 111.288 25.266V28.992C111.288 29.364 111.192 29.652 111 29.856C110.808 30.048 110.526 30.144 110.154 30.144ZM118.828 33.384C118.564 33.384 118.348 33.312 118.18 33.168C118.012 33.036 117.91 32.856 117.874 32.628C117.85 32.4 117.892 32.16 118 31.908L119.224 29.19V30.126L115.948 22.548C115.84 22.284 115.804 22.038 115.84 21.81C115.876 21.582 115.984 21.402 116.164 21.27C116.356 21.126 116.614 21.054 116.938 21.054C117.214 21.054 117.436 21.12 117.604 21.252C117.772 21.372 117.922 21.606 118.054 21.954L120.484 28.02H119.944L122.428 21.936C122.56 21.6 122.716 21.372 122.896 21.252C123.076 21.12 123.316 21.054 123.616 21.054C123.88 21.054 124.09 21.126 124.246 21.27C124.402 21.402 124.498 21.582 124.534 21.81C124.57 22.026 124.528 22.266 124.408 22.53L120.034 32.52C119.878 32.856 119.71 33.084 119.53 33.204C119.35 33.324 119.116 33.384 118.828 33.384Z" fill="white"/>
</svg>
