<svg width="25" height="25" viewBox="0 0 25 25" fill="none" xmlns="http://www.w3.org/2000/svg">
<mask id="mask0_842_12283" style="mask-type:alpha" maskUnits="userSpaceOnUse" x="0" y="0" width="25" height="25">
<rect x="25" y="1.09278e-06" width="25" height="25" transform="rotate(90 25 1.09278e-06)" fill="#444DF2"/>
</mask>
<g mask="url(#mask0_842_12283)">
<path d="M8.22933 12.8775C8.22933 12.7038 8.26405 12.5344 8.3335 12.3691C8.40294 12.2045 8.50711 12.0528 8.646 11.9139L13.4897 7.07016C13.7502 6.80975 14.0759 6.68371 14.4668 6.69204C14.8571 6.70107 15.1825 6.83579 15.4429 7.09621C15.7033 7.35662 15.8335 7.68232 15.8335 8.07329C15.8335 8.46357 15.7033 8.78891 15.4429 9.04933L11.5887 12.8775L15.4429 16.7316C15.7033 16.992 15.8335 17.3174 15.8335 17.7077C15.8335 18.0986 15.7033 18.4243 15.4429 18.6847C15.1825 18.9452 14.8571 19.0754 14.4668 19.0754C14.0759 19.0754 13.7502 18.9452 13.4897 18.6847L8.646 13.841C8.50711 13.7021 8.40294 13.5504 8.3335 13.3858C8.26405 13.2205 8.22933 13.0511 8.22933 12.8775Z" fill="#535AF1"/>
</g>
</svg>
